<svg width="44" height="44" viewBox="0 0 44 44" fill="none" xmlns="http://www.w3.org/2000/svg">
<path d="M23.8334 3.66663C28.2095 3.66663 32.4063 5.40501 35.5007 8.49936C38.595 11.5937 40.3334 15.7906 40.3334 20.1666M23.8334 11C26.2646 11 28.5961 11.9657 30.3152 13.6848C32.0343 15.4039 33.0001 17.7355 33.0001 20.1666M25.3587 30.3746C25.7374 30.5485 26.164 30.5882 26.5682 30.4873C26.9724 30.3863 27.3302 30.1506 27.5826 29.8191L28.2334 28.9666C28.575 28.5112 29.0178 28.1416 29.527 27.8871C30.0361 27.6325 30.5975 27.5 31.1667 27.5H36.6667C37.6392 27.5 38.5718 27.8863 39.2595 28.5739C39.9471 29.2615 40.3334 30.1942 40.3334 31.1666V36.6666C40.3334 37.6391 39.9471 38.5717 39.2595 39.2594C38.5718 39.947 37.6392 40.3333 36.6667 40.3333C27.9146 40.3333 19.5209 36.8565 13.3322 30.6678C7.14352 24.4791 3.66675 16.0854 3.66675 7.33329C3.66675 6.36083 4.05306 5.4282 4.74069 4.74057C5.42832 4.05293 6.36095 3.66663 7.33341 3.66663H12.8334C13.8059 3.66663 14.7385 4.05293 15.4261 4.74057C16.1138 5.4282 16.5001 6.36083 16.5001 7.33329V12.8333C16.5001 13.4025 16.3676 13.9639 16.113 14.4731C15.8584 14.9822 15.4888 15.4251 15.0334 15.7666L14.1754 16.4101C13.8388 16.6671 13.6016 17.0327 13.504 17.4448C13.4064 17.8568 13.4545 18.29 13.6401 18.6706C16.1457 23.7597 20.2665 27.8754 25.3587 30.3746Z" stroke="#EAB308" stroke-width="2" stroke-linecap="round" stroke-linejoin="round"/>
</svg>
