<svg width="55" height="55" viewBox="0 0 55 55" fill="none" xmlns="http://www.w3.org/2000/svg">
<path d="M29.4668 0C28.9458 0 28.4461 0.206962 28.0777 0.575358C27.7094 0.943754 27.5024 1.44341 27.5024 1.9644V25.5371C27.5024 26.0581 27.7094 26.5578 28.0777 26.9262C28.4461 27.2946 28.9458 27.5015 29.4668 27.5015H53.0395C53.5605 27.5015 54.0602 27.2946 54.4286 26.9262C54.797 26.5578 55.0039 26.0581 55.0039 25.5371C55.0039 22.1836 54.3434 18.8628 53.06 15.7645C51.7767 12.6662 49.8956 9.851 47.5243 7.47966C45.1529 5.10831 42.3377 3.22726 39.2394 1.9439C36.1411 0.660538 32.8204 0 29.4668 0ZM31.4312 23.5727V4.01522C36.4635 4.47395 41.1759 6.68182 44.749 10.2549C48.3221 13.8281 50.53 18.5404 50.9887 23.5727H31.4312ZM23.5736 9.90841C23.5736 9.63553 23.5168 9.36564 23.4067 9.11594C23.2966 8.86624 23.1358 8.64221 22.9343 8.45814C22.7329 8.27406 22.4953 8.13398 22.2367 8.04681C21.9781 7.95965 21.7042 7.92731 21.4324 7.95187C16.9711 8.35863 12.718 10.0282 9.17135 12.7652C5.62472 15.5021 2.93142 19.1929 1.40691 23.4054C-0.117592 27.6179 -0.410171 32.1776 0.563446 36.5504C1.53706 40.9231 3.73656 44.928 6.9043 48.0957C10.072 51.2634 14.0769 53.4629 18.4496 54.4366C22.8224 55.4102 27.3821 55.1176 31.5946 53.5931C35.8071 52.0686 39.4979 49.3753 42.2348 45.8287C44.9718 42.282 46.6414 38.0289 47.0481 33.5676C47.0721 33.2965 47.0394 33.0233 46.9522 32.7655C46.865 32.5076 46.7252 32.2707 46.5416 32.0697C46.358 31.8688 46.1347 31.7082 45.8857 31.5981C45.6368 31.488 45.3677 31.4309 45.0955 31.4303H23.5736V9.90841ZM3.92965 31.4303C3.92872 26.9018 5.49245 22.512 8.35619 19.0039C11.2199 15.4959 15.2078 13.085 19.6448 12.1793V33.3947C19.6448 33.9157 19.8518 34.4154 20.2202 34.7838C20.5886 35.1522 21.0882 35.3591 21.6092 35.3591H42.8247C41.8389 40.1183 39.1245 44.3433 35.2057 47.2181C31.287 50.093 26.442 51.4138 21.6064 50.9253C16.7708 50.4369 12.2878 48.1739 9.02313 44.5734C5.75848 40.973 3.94382 36.2905 3.92965 31.4303Z" fill="url(#paint0_linear_773_132)"/>
<defs>
<linearGradient id="paint0_linear_773_132" x1="27.502" y1="0" x2="27.502" y2="55" gradientUnits="userSpaceOnUse">
<stop stop-color="#F472B6"/>
<stop offset="1" stop-color="#EAB308"/>
</linearGradient>
</defs>
</svg>
