<svg width="29" height="29" viewBox="0 0 29 29" fill="none" xmlns="http://www.w3.org/2000/svg">
<path d="M23.9545 4.10053C22.6625 2.79586 21.1237 1.76139 19.4279 1.0574C17.732 0.353417 15.913 -0.00600719 14.0768 7.59431e-05C6.38318 7.59431e-05 0.112727 6.27053 0.112727 13.9642C0.112727 16.4301 0.760909 18.8255 1.97273 20.9392L0 28.1819L7.39773 26.2373C9.44091 27.3505 11.7377 27.9423 14.0768 27.9423C21.7705 27.9423 28.0409 21.6719 28.0409 13.9783C28.0409 10.2442 26.5895 6.73553 23.9545 4.10053ZM14.0768 25.5751C11.9914 25.5751 9.94818 25.0114 8.15864 23.9546L7.73591 23.701L3.33955 24.8564L4.50909 20.5728L4.22727 20.136C3.06836 18.2859 2.45312 16.1472 2.45182 13.9642C2.45182 7.56689 7.66545 2.35326 14.0627 2.35326C17.1627 2.35326 20.0795 3.56508 22.2636 5.76326C23.3453 6.83961 24.2024 8.12002 24.7854 9.53022C25.3683 10.9404 25.6655 12.4523 25.6595 13.9783C25.6877 20.3755 20.4741 25.5751 14.0768 25.5751ZM20.4459 16.8951C20.0936 16.726 18.3745 15.8805 18.0645 15.7537C17.7404 15.641 17.515 15.5846 17.2755 15.9228C17.0359 16.2751 16.3736 17.0642 16.1764 17.2896C15.9791 17.5292 15.7677 17.5573 15.4155 17.3742C15.0632 17.2051 13.9359 16.8246 12.6114 15.641C11.5686 14.711 10.8782 13.5696 10.6668 13.2173C10.4695 12.8651 10.6386 12.6819 10.8218 12.4987C10.9768 12.3437 11.1741 12.0901 11.3432 11.8928C11.5123 11.6955 11.5827 11.5405 11.6955 11.3151C11.8082 11.0755 11.7518 10.8783 11.6673 10.7092C11.5827 10.5401 10.8782 8.82098 10.5964 8.11644C10.3145 7.44008 10.0186 7.52462 9.80727 7.51053H9.13091C8.89136 7.51053 8.525 7.59508 8.20091 7.94735C7.89091 8.29962 6.98909 9.14507 6.98909 10.8642C6.98909 12.5833 8.24318 14.246 8.41227 14.4714C8.58136 14.711 10.8782 18.2337 14.3727 19.7414C15.2041 20.1078 15.8523 20.3192 16.3595 20.4742C17.1909 20.7419 17.9518 20.6996 18.5577 20.6151C19.2341 20.5164 20.6291 19.7696 20.9109 18.9523C21.2068 18.1351 21.2068 17.4446 21.1082 17.2896C21.0095 17.1346 20.7982 17.0642 20.4459 16.8951Z" fill="#EAB308"/>
</svg>
