<svg width="29" height="29" viewBox="0 0 29 29" fill="none" xmlns="http://www.w3.org/2000/svg">
<path d="M14.0923 9.86363C12.9712 9.86363 11.896 10.309 11.1032 11.1018C10.3104 11.8945 9.86504 12.9698 9.86504 14.0909C9.86504 15.212 10.3104 16.2873 11.1032 17.08C11.896 17.8728 12.9712 18.3182 14.0923 18.3182C15.2135 18.3182 16.2887 17.8728 17.0814 17.08C17.8742 16.2873 18.3196 15.212 18.3196 14.0909C18.3196 12.9698 17.8742 11.8945 17.0814 11.1018C16.2887 10.309 15.2135 9.86363 14.0923 9.86363ZM14.0923 7.04545C15.9609 7.04545 17.7529 7.78774 19.0742 9.10902C20.3955 10.4303 21.1378 12.2223 21.1378 14.0909C21.1378 15.9595 20.3955 17.7515 19.0742 19.0728C17.7529 20.3941 15.9609 21.1364 14.0923 21.1364C12.2237 21.1364 10.4317 20.3941 9.11043 19.0728C7.78915 17.7515 7.04686 15.9595 7.04686 14.0909C7.04686 12.2223 7.78915 10.4303 9.11043 9.10902C10.4317 7.78774 12.2237 7.04545 14.0923 7.04545ZM23.2514 6.69318C23.2514 7.16032 23.0658 7.60833 22.7355 7.93865C22.4052 8.26897 21.9572 8.45454 21.49 8.45454C21.0229 8.45454 20.5749 8.26897 20.2446 7.93865C19.9142 7.60833 19.7287 7.16032 19.7287 6.69318C19.7287 6.22604 19.9142 5.77803 20.2446 5.44771C20.5749 5.11739 21.0229 4.93182 21.49 4.93182C21.9572 4.93182 22.4052 5.11739 22.7355 5.44771C23.0658 5.77803 23.2514 6.22604 23.2514 6.69318ZM14.0923 2.81818C10.6062 2.81818 10.037 2.82805 8.41509 2.89991C7.31036 2.95204 6.56918 3.1 5.88154 3.36773C5.3064 3.57961 4.78629 3.91817 4.35973 4.35832C3.91907 4.78473 3.58002 5.30486 3.36773 5.88014C3.1 6.57059 2.95204 7.31036 2.90132 8.41368C2.82804 9.96932 2.81818 10.5132 2.81818 14.0909C2.81818 17.5784 2.82805 18.1463 2.89991 19.7681C2.95204 20.8715 3.1 21.614 3.36632 22.3003C3.60586 22.9132 3.88768 23.3543 4.3555 23.8221C4.83036 24.2955 5.27141 24.5788 5.87732 24.8127C6.57341 25.0818 7.31459 25.2312 8.41368 25.2819C9.96932 25.3552 10.5132 25.3636 14.0909 25.3636C17.5784 25.3636 18.1463 25.3538 19.7681 25.2819C20.87 25.2298 21.6112 25.0818 22.3003 24.8155C22.8754 24.6036 23.3955 24.2651 23.8221 23.8249C24.2969 23.3515 24.5802 22.9104 24.8141 22.3031C25.0818 21.6098 25.2312 20.8686 25.2819 19.7667C25.3552 18.2125 25.3636 17.6672 25.3636 14.0909C25.3636 10.6048 25.3538 10.0355 25.2819 8.41368C25.2298 7.31177 25.0804 6.56777 24.8141 5.88014C24.6022 5.30499 24.2636 4.78488 23.8235 4.35832C23.3971 3.91766 22.877 3.57861 22.3017 3.36632C21.6112 3.09859 20.87 2.95064 19.7681 2.89991C18.2139 2.82664 17.67 2.81818 14.0909 2.81818M14.0909 0C17.9194 0 18.3971 0.0140908 19.9006 0.0845454C21.3999 0.155 22.4229 0.390318 23.3204 0.739773C24.2504 1.09768 25.0339 1.58241 25.8174 2.36445C26.5342 3.06862 27.0886 3.92076 27.442 4.86136C27.7901 5.75895 28.0268 6.78195 28.0973 8.28263C28.1635 9.78473 28.1818 10.2624 28.1818 14.0909C28.1818 17.9194 28.1677 18.3971 28.0973 19.8992C28.0268 21.4013 27.7901 22.4214 27.442 23.3204C27.0886 24.2611 26.5342 25.1132 25.8174 25.8174C25.1132 26.5342 24.2611 27.0886 23.3204 27.442C22.4229 27.7901 21.3999 28.0268 19.9006 28.0973C18.3971 28.1635 17.9194 28.1818 14.0909 28.1818C10.2624 28.1818 9.78473 28.1677 8.28123 28.0973C6.78195 28.0268 5.76036 27.7901 4.86136 27.442C3.92076 27.0886 3.06862 26.5342 2.36445 25.8174C1.64766 25.1132 1.0932 24.2611 0.739773 23.3204C0.390318 22.4229 0.155 21.3999 0.0845454 19.8992C0.016909 18.3971 0 17.9194 0 14.0909C0 10.2624 0.0140908 9.78473 0.0845454 8.28263C0.155 6.78054 0.390318 5.76036 0.739773 4.86136C1.0932 3.92076 1.64766 3.06862 2.36445 2.36445C3.06862 1.64766 3.92076 1.0932 4.86136 0.739773C5.75895 0.390318 6.78054 0.155 8.28123 0.0845454C9.78613 0.0183181 10.2638 0 14.0923 0" fill="#EAB308"/>
</svg>
