<svg width="29" height="29" viewBox="0 0 29 29" fill="none" xmlns="http://www.w3.org/2000/svg">
<path d="M16.2045 28.024C22.9837 27.0038 28.1818 21.1547 28.1818 14.0909C28.1818 6.3085 21.8733 0 14.0909 0C6.3085 0 0 6.3085 0 14.0909C0 21.1547 5.19814 27.0052 11.9773 28.024V18.3182H9.86363C9.30306 18.3182 8.76545 18.0955 8.36907 17.6991C7.97268 17.3027 7.75 16.7651 7.75 16.2045C7.75 15.644 7.97268 15.1064 8.36907 14.71C8.76545 14.3136 9.30306 14.0909 9.86363 14.0909H11.9773V11.2727C11.9773 9.96473 12.4969 8.7103 13.4218 7.7854C14.3467 6.86051 15.6011 6.34091 16.9091 6.34091H17.6136C18.1742 6.34091 18.7118 6.56359 19.1082 6.95998C19.5046 7.35636 19.7273 7.89397 19.7273 8.45454C19.7273 9.01512 19.5046 9.55273 19.1082 9.94911C18.7118 10.3455 18.1742 10.5682 17.6136 10.5682H16.9091C16.7222 10.5682 16.543 10.6424 16.4109 10.7745C16.2788 10.9067 16.2045 11.0859 16.2045 11.2727V14.0909H18.3182C18.8787 14.0909 19.4164 14.3136 19.8127 14.71C20.2091 15.1064 20.4318 15.644 20.4318 16.2045C20.4318 16.7651 20.2091 17.3027 19.8127 17.6991C19.4164 18.0955 18.8787 18.3182 18.3182 18.3182H16.2045V28.024Z" fill="#EAB308"/>
</svg>
