<svg width="29" height="29" viewBox="0 0 29 29" fill="none" xmlns="http://www.w3.org/2000/svg">
<path fill-rule="evenodd" clip-rule="evenodd" d="M10.4681 9.81995H15.7015V12.4268C16.4554 10.9275 18.3886 9.58041 21.2928 9.58041C26.8601 9.58041 28.1818 12.5649 28.1818 18.0406V28.1818H22.5455V19.2876C22.5455 16.1693 21.7916 14.4108 19.8724 14.4108C17.2106 14.4108 16.1045 16.306 16.1045 19.2862V28.1818H10.4681V9.81995ZM0.803182 27.9423H6.43954V9.58041H0.803182V27.9423ZM7.24695 3.59318C7.24716 4.06562 7.15347 4.53338 6.97132 4.96928C6.78917 5.40519 6.52219 5.80054 6.18591 6.13236C5.84863 6.46789 5.44854 6.73368 5.0085 6.91452C4.56847 7.09537 4.09711 7.18775 3.62136 7.18636C2.66262 7.18421 1.74292 6.80631 1.05964 6.13377C0.724695 5.80073 0.458704 5.40491 0.276881 4.96897C0.0950577 4.53303 0.000969761 4.06552 0 3.59318C0 2.63923 0.380454 1.72614 1.06105 1.05259C1.74262 0.377471 2.66343 -0.000879447 3.62277 1.53507e-06C4.58377 1.53507e-06 5.50532 0.379047 6.18591 1.05259C6.8665 1.72614 7.24695 2.63923 7.24695 3.59318Z" fill="#EAB308"/>
</svg>
