<svg width="60" height="60" viewBox="0 0 60 60" fill="none" xmlns="http://www.w3.org/2000/svg">
<path d="M41.25 10.5C43.8359 10.5 46.3158 11.5272 48.1443 13.3557C49.9728 15.1842 51 17.6641 51 20.25C51 22.8359 49.9728 25.3158 48.1443 27.1443C46.3158 28.9728 43.8359 30 41.25 30H18.75C17.3576 30 16.0223 30.5531 15.0377 31.5377C14.0531 32.5223 13.5 33.8576 13.5 35.25C13.5 36.6424 14.0531 37.9777 15.0377 38.9623C16.0223 39.9469 17.3576 40.5 18.75 40.5H46.32L45.66 39.84C45.4389 39.634 45.2616 39.3856 45.1387 39.1096C45.0157 38.8336 44.9496 38.5357 44.9442 38.2336C44.9389 37.9315 44.9945 37.6314 45.1076 37.3512C45.2208 37.071 45.3892 36.8165 45.6029 36.6029C45.8165 36.3892 46.071 36.2208 46.3512 36.1076C46.6314 35.9945 46.9315 35.9389 47.2336 35.9442C47.5357 35.9496 47.8336 36.0157 48.1096 36.1387C48.3856 36.2616 48.634 36.4389 48.84 36.66L53.34 41.16C53.7614 41.5819 53.998 42.1537 53.998 42.75C53.998 43.3463 53.7614 43.9181 53.34 44.34L48.84 48.84C48.634 49.0611 48.3856 49.2384 48.1096 49.3613C47.8336 49.4843 47.5357 49.5504 47.2336 49.5558C46.9315 49.5611 46.6314 49.5055 46.3512 49.3924C46.071 49.2792 45.8165 49.1108 45.6029 48.8971C45.3892 48.6835 45.2208 48.429 45.1076 48.1488C44.9945 47.8686 44.9389 47.5685 44.9442 47.2664C44.9496 46.9643 45.0157 46.6664 45.1387 46.3904C45.2616 46.1144 45.4389 45.866 45.66 45.66L46.32 45H18.75C16.1641 45 13.6842 43.9728 11.8557 42.1443C10.0272 40.3158 9 37.8359 9 35.25C9 32.6641 10.0272 30.1842 11.8557 28.3557C13.6842 26.5272 16.1641 25.5 18.75 25.5H41.25C42.6424 25.5 43.9777 24.9469 44.9623 23.9623C45.9469 22.9777 46.5 21.6424 46.5 20.25C46.5 18.8576 45.9469 17.5223 44.9623 16.5377C43.9777 15.5531 42.6424 15 41.25 15H11.25C10.6533 15 10.081 14.7629 9.65901 14.341C9.23705 13.919 9 13.3467 9 12.75C9 12.1533 9.23705 11.581 9.65901 11.159C10.081 10.7371 10.6533 10.5 11.25 10.5H41.25Z" fill="url(#paint0_linear_937_390)"/>
<defs>
<linearGradient id="paint0_linear_937_390" x1="31.499" y1="10.5" x2="31.499" y2="49.5561" gradientUnits="userSpaceOnUse">
<stop stop-color="#F472B6"/>
<stop offset="1" stop-color="#EAB308"/>
</linearGradient>
</defs>
</svg>
