<svg width="62" height="62" viewBox="0 0 62 62" fill="none" xmlns="http://www.w3.org/2000/svg">
<path d="M9.30005 18.6C9.30005 16.1335 10.2799 13.768 12.024 12.024C13.768 10.2799 16.1335 9.30005 18.6 9.30005H43.4001C45.8666 9.30005 48.2321 10.2799 49.9761 12.024C51.7202 13.768 52.7001 16.1335 52.7001 18.6V24.893C51.6704 24.7738 50.6306 24.7696 49.6001 24.8806V21.7H12.4V43.4C12.4 45.0444 13.0533 46.6214 14.216 47.7841C15.3787 48.9468 16.9557 49.6 18.6 49.6H29.4252C28.7443 50.5194 28.2753 51.578 28.0519 52.7H18.6C16.1335 52.7 13.768 51.7202 12.024 49.9761C10.2799 48.2321 9.30005 45.8666 9.30005 43.4V18.6ZM40.4364 29.7197L35.9725 25.2557C35.6818 24.9647 35.2875 24.801 34.8761 24.8007C34.4648 24.8004 34.0702 24.9636 33.7792 25.2542C33.4881 25.5448 33.3245 25.9392 33.3242 26.3505C33.3239 26.7618 33.487 27.1564 33.7776 27.4474L38.6695 32.3361C39.1489 31.4123 39.7379 30.5402 40.4364 29.7197ZM18.6 12.4C16.9557 12.4 15.3787 13.0533 14.216 14.216C13.0533 15.3787 12.4 16.9557 12.4 18.6H49.6001C49.6001 16.9557 48.9468 15.3787 47.7841 14.216C46.6214 13.0533 45.0444 12.4 43.4001 12.4H18.6ZM28.2225 27.4474C28.5135 27.1564 28.677 26.7617 28.677 26.35C28.677 25.9384 28.5135 25.5437 28.2225 25.2526C27.9314 24.9616 27.5367 24.7981 27.125 24.7981C26.7134 24.7981 26.3187 24.9616 26.0276 25.2526L18.2776 33.0026C18.1333 33.1466 18.0188 33.3177 17.9406 33.506C17.8625 33.6943 17.8223 33.8962 17.8223 34.1C17.8223 34.3039 17.8625 34.5058 17.9406 34.6941C18.0188 34.8824 18.1333 35.0535 18.2776 35.1974L26.0276 42.9474C26.3187 43.2385 26.7134 43.402 27.125 43.402C27.5367 43.402 27.9314 43.2385 28.2225 42.9474C28.5135 42.6564 28.677 42.2617 28.677 41.85C28.677 41.4384 28.5135 41.0437 28.2225 40.7526L21.5667 34.1L28.2225 27.4474ZM52.3652 27.9744C53.4999 28.1046 53.8253 29.4624 53.0162 30.2746L49.9938 33.2971C49.5598 33.7311 49.2155 34.2463 48.9807 34.8133C48.7458 35.3803 48.6249 35.988 48.6249 36.6017C48.6249 37.2155 48.7458 37.8232 48.9807 38.3902C49.2155 38.9572 49.5598 39.4724 49.9938 39.9063C50.4277 40.3403 50.9429 40.6846 51.5099 40.9194C52.0769 41.1543 52.6846 41.2752 53.2984 41.2752C53.9121 41.2752 54.5198 41.1543 55.0868 40.9194C55.6538 40.6846 56.169 40.3403 56.603 39.9063L59.6255 36.8838C60.4345 36.0747 61.7955 36.4002 61.9257 37.5348C62.1416 39.3772 61.884 41.2441 61.1773 42.9592C60.4706 44.6742 59.3381 46.1807 57.887 47.3361C56.4358 48.4915 54.7139 49.2576 52.8842 49.5621C51.0544 49.8666 49.1772 49.6993 47.43 49.0761L38.9795 57.5299C38.5455 57.9638 38.0303 58.3081 37.4633 58.5429C36.8963 58.7778 36.2886 58.8987 35.6749 58.8987C35.0611 58.8987 34.4534 58.7778 33.8864 58.5429C33.3194 58.3081 32.8042 57.9638 32.3703 57.5299C31.9363 57.0959 31.592 56.5807 31.3572 56.0137C31.1223 55.4467 31.0014 54.839 31.0014 54.2253C31.0014 53.6115 31.1223 53.0038 31.3572 52.4368C31.592 51.8698 31.9363 51.3546 32.3703 50.9207L40.8209 42.47C40.1975 40.7227 40.0302 38.8451 40.3348 37.0151C40.6395 35.185 41.4059 33.4629 42.5617 32.0116C43.7175 30.5604 45.2244 29.428 46.9399 28.7215C48.6553 28.0151 50.5227 27.758 52.3652 27.9744Z" fill="url(#paint0_linear_773_163)"/>
<defs>
<linearGradient id="paint0_linear_773_163" x1="35.6499" y1="9.30005" x2="35.6499" y2="58.8987" gradientUnits="userSpaceOnUse">
<stop stop-color="#F472B6"/>
<stop offset="1" stop-color="#EAB308"/>
</linearGradient>
</defs>
</svg>
