<svg width="62" height="62" viewBox="0 0 62 62" fill="none" xmlns="http://www.w3.org/2000/svg">
<path d="M46.5 7.75H7.75V50.375H32.9375L34.875 54.25H3.875V3.875H50.375V32.9375L46.5 29.0625V7.75Z" fill="url(#paint0_linear_773_167)"/>
<path d="M11.625 19.375H42.6211V15.5H11.625V19.375ZM11.625 31V27.125H34.875L32.9375 31H11.625ZM11.625 42.625V38.75H21.3125V42.625H11.625ZM41.4121 56.296L41.2804 56.513C41.2076 56.5994 41.1169 56.6689 41.0145 56.7165C40.912 56.7642 40.8005 56.7889 40.6875 56.7889C40.5745 56.7889 40.463 56.7642 40.3605 56.7165C40.2581 56.6689 40.1674 56.5994 40.0946 56.513L39.9629 56.296L39.6955 55.6179L40.6875 56.0093L41.6756 55.6217L41.4121 56.296ZM39.9668 25.079C40.0232 24.9332 40.1225 24.8079 40.2514 24.7196C40.3804 24.6312 40.5331 24.5839 40.6894 24.5839C40.8458 24.5839 40.9985 24.6312 41.1274 24.7196C41.2564 24.8079 41.3557 24.9332 41.4121 25.079L43.7681 31.0581C44.3527 32.5402 45.2357 33.8863 46.3622 35.0128C47.4887 36.1393 48.8348 37.0223 50.3169 37.6069L55.6217 39.6994L56.0093 40.6875L55.6217 41.6756L50.3169 43.7681L49.7627 44.0006C47.0217 45.2498 44.8725 47.5143 43.7681 50.3169L41.6756 55.6217L40.6875 56.0093L39.6955 55.6217L37.6069 50.3169C36.5025 47.5143 34.3533 45.2498 31.6122 44.0006L31.0581 43.7681L25.079 41.4121C24.9332 41.3557 24.8079 41.2564 24.7196 41.1274C24.6312 40.9985 24.5839 40.8458 24.5839 40.6894C24.5839 40.5331 24.6312 40.3804 24.7196 40.2514C24.8079 40.1225 24.9332 40.0232 25.079 39.9667L25.7533 39.6955L31.0581 37.6069C33.8607 36.5025 36.1252 34.3533 37.3744 31.6122L37.6069 31.0581L39.9668 25.079ZM40.6875 33.6505C39.1791 36.7059 36.7059 39.1791 33.6505 40.6875C36.7053 42.1949 39.1784 44.6667 40.6875 47.7206C42.1956 44.6673 44.6673 42.1956 47.7206 40.6875C44.6667 39.1784 42.1949 36.7053 40.6875 33.6505ZM56.296 39.9667C56.4418 40.0232 56.5671 40.1225 56.6554 40.2514C56.7438 40.3804 56.7911 40.5331 56.7911 40.6894C56.7911 40.8458 56.7438 40.9985 56.6554 41.1274C56.5671 41.2564 56.4418 41.3557 56.296 41.4121L55.6179 41.6756L56.0093 40.6875L55.6217 39.6994L56.296 39.9667Z" fill="url(#paint1_linear_773_167)"/>
<defs>
<linearGradient id="paint0_linear_773_167" x1="27.125" y1="3.875" x2="27.125" y2="54.25" gradientUnits="userSpaceOnUse">
<stop stop-color="#F472B6"/>
<stop offset="1" stop-color="#EAB308"/>
</linearGradient>
<linearGradient id="paint1_linear_773_167" x1="34.208" y1="15.5" x2="34.208" y2="56.7889" gradientUnits="userSpaceOnUse">
<stop stop-color="#F472B6"/>
<stop offset="1" stop-color="#EAB308"/>
</linearGradient>
</defs>
</svg>
