<svg width="62" height="62" viewBox="0 0 62 62" fill="none" xmlns="http://www.w3.org/2000/svg">
<path d="M16.3835 25.1565C17.515 26.3035 18.1738 27.8031 18.5806 29.3028C19.375 32.2168 19.375 35.8205 19.375 38.6066V38.75C19.375 46.7248 17.8831 51.46 16.1936 54.2771C15.5535 55.3851 14.7155 56.3662 13.7214 57.1718C13.3259 57.4778 12.8969 57.7378 12.4426 57.9468C12.4426 57.9468 11.9505 58.125 11.625 58.125C11.3457 58.1028 11.0706 58.0429 10.8074 57.9468C10.3531 57.7378 9.92408 57.4778 9.52863 57.1718C8.53447 56.3662 7.69652 55.3851 7.05638 54.2771C5.36688 51.4639 3.875 46.7248 3.875 38.75V38.6105C3.875 35.8205 3.875 32.2206 4.66938 29.2989C5.07625 27.8031 5.735 26.3035 6.8665 25.1526C5.0375 23.4205 3.875 20.6615 3.875 17.4375C3.875 16.1743 4.21213 14.6669 4.67713 13.2758C5.14213 11.8846 5.79313 10.4393 6.54488 9.27676C7.44 7.76551 8.69938 6.49839 9.67588 5.64589C10.2132 5.17742 10.7718 4.73391 11.3499 4.31676L11.4661 4.23926L11.501 4.21214L11.5126 4.20439L11.5204 4.20051C11.8758 3.9586 12.3017 3.84179 12.7308 3.86849C13.1599 3.89518 13.568 4.06387 13.8907 4.34798C14.2135 4.63209 14.4325 5.01548 14.5134 5.43777C14.5943 5.86006 14.5324 6.29726 14.3375 6.68051C14.3035 6.79229 14.2865 6.90855 14.2871 7.02539C14.2871 7.26951 14.3491 7.73451 14.9343 8.31576C15.2171 8.59864 15.4341 8.80014 15.6705 9.02101C15.8643 9.19926 16.0696 9.38526 16.3293 9.64101C16.833 10.1215 17.3639 10.6873 17.8405 11.3964C18.8286 12.8805 19.375 14.7366 19.375 17.4375C19.375 20.6615 18.2125 23.4166 16.3835 25.1565ZM11.625 27.125C10.6563 27.125 10.075 27.4273 9.63713 27.8613C9.14888 28.3534 8.7265 29.1516 8.40875 30.318C7.7655 32.6856 7.75 35.7934 7.75 38.75C7.75 46.2753 9.16437 50.2588 10.3811 52.2854C10.8461 53.0604 11.284 53.5603 11.625 53.8741C12.1144 53.4076 12.5334 52.8725 12.8689 52.2854C14.0856 50.2549 15.5 46.2753 15.5 38.75C15.5 35.7934 15.4845 32.6856 14.8413 30.318C14.5235 29.1555 14.1011 28.3534 13.6129 27.8613C13.175 27.4273 12.5899 27.125 11.625 27.125ZM7.75 17.4375C7.75 21.5915 10.1331 23.25 11.625 23.25C13.1169 23.25 15.5 21.5915 15.5 17.4375C15.5 15.2946 15.0776 14.2445 14.6126 13.547C14.3291 13.1402 14.0031 12.7648 13.64 12.4271L13.1595 11.9776C12.8313 11.6771 12.5084 11.3709 12.1908 11.0593C11.768 10.6389 11.4043 10.1631 11.1096 9.64489C10.6166 10.1637 10.1825 10.7355 9.81538 11.3499C9.27288 12.183 8.74587 13.3261 8.3545 14.5041C7.9515 15.7054 7.75 16.7671 7.75 17.4375ZM27.1173 42.5204C25.7741 42.3704 24.4529 42.0649 23.1803 41.6098C23.2268 40.6384 23.25 39.6335 23.25 38.595V37.448C24.4513 38.0176 25.7533 38.4168 27.1173 38.6105V31C27.1173 28.9446 27.9338 26.9733 29.3872 25.5199C30.8406 24.0665 32.8118 23.25 34.8673 23.25H42.4816C42.1734 21.1075 41.3569 19.0699 40.1002 17.3074C38.8435 15.545 37.1833 14.1089 35.2582 13.1193C33.3331 12.1296 31.1991 11.6151 29.0346 11.6187C26.87 11.6224 24.7378 12.144 22.816 13.1401C22.5116 11.8733 22.0094 10.6624 21.328 9.55189C23.8395 8.31067 26.6131 7.69283 29.4139 7.75067C32.2148 7.80852 34.9605 8.54035 37.4186 9.88421C39.8767 11.2281 41.9749 13.1444 43.5354 15.471C45.0959 17.7975 46.073 20.4658 46.3838 23.25H50.3634C52.4188 23.25 54.39 24.0665 55.8435 25.5199C57.2969 26.9733 58.1134 28.9446 58.1134 31V46.5C58.1134 48.5554 57.2969 50.5267 55.8435 51.9801C54.39 53.4335 52.4188 54.25 50.3634 54.25H34.8634C32.8079 54.25 30.8367 53.4335 29.3833 51.9801C27.9299 50.5267 27.1134 48.5554 27.1134 46.5L27.1173 42.5204ZM46.3876 27.125C45.9487 31.0571 44.1856 34.723 41.3879 37.5207C38.5903 40.3184 34.9243 42.0815 30.9923 42.5204V46.5C30.9923 47.5277 31.4005 48.5134 32.1272 49.2401C32.8539 49.9668 33.8395 50.375 34.8673 50.375H50.3673C51.395 50.375 52.3806 49.9668 53.1073 49.2401C53.834 48.5134 54.2423 47.5277 54.2423 46.5V31C54.2423 29.9723 53.834 28.9867 53.1073 28.26C52.3806 27.5333 51.395 27.125 50.3673 27.125H46.3876ZM42.4816 27.125H34.8673C33.8395 27.125 32.8539 27.5333 32.1272 28.26C31.4005 28.9867 30.9923 29.9723 30.9923 31V38.6144C33.8911 38.1966 36.5769 36.8517 38.6479 34.7807C40.7189 32.7097 42.0639 30.0239 42.4816 27.125Z" fill="url(#paint0_linear_773_170)"/>
<defs>
<linearGradient id="paint0_linear_773_170" x1="30.9942" y1="3.86475" x2="30.9942" y2="58.125" gradientUnits="userSpaceOnUse">
<stop stop-color="#F472B6"/>
<stop offset="1" stop-color="#EAB308"/>
</linearGradient>
</defs>
</svg>
