<svg width="62" height="62" viewBox="0 0 62 62" fill="none" xmlns="http://www.w3.org/2000/svg">
<g clip-path="url(#clip0_773_165)">
<path d="M55.2188 8.13746C54.5526 7.70649 53.7907 7.44576 53.0002 7.37819C52.2097 7.31063 51.4146 7.43829 50.685 7.74996L26.7762 17.1662C26.2108 17.3985 25.6051 17.517 24.9937 17.515H9.6875C8.40286 17.515 7.17083 18.0253 6.26245 18.9337C5.35407 19.842 4.84375 21.0741 4.84375 22.3587V22.7462H0V34.3712H4.84375V34.875C4.8741 36.1393 5.3978 37.3417 6.30291 38.2251C7.20802 39.1085 8.42275 39.6028 9.6875 39.6025L15.5 51.925C15.8936 52.7548 16.5132 53.4567 17.2878 53.9502C18.0623 54.4438 18.9604 54.7088 19.8787 54.715H22.32C23.5979 54.7047 24.82 54.1899 25.72 53.2826C26.62 52.3754 27.125 51.1492 27.125 49.8712V40.0675L50.685 49.4837C51.2653 49.7117 51.8828 49.8299 52.5063 49.8325C53.4735 49.8147 54.4152 49.5187 55.2188 48.98C55.8561 48.5496 56.3818 47.9737 56.7524 47.2999C57.123 46.6261 57.3279 45.8737 57.35 45.105V12.1287C57.3465 11.3402 57.1505 10.5645 56.779 9.86894C56.4076 9.17338 55.872 8.57901 55.2188 8.13746ZM22.2812 22.3587V34.875H9.6875V22.3587H22.2812ZM22.2812 49.8712H19.84L15.0738 39.6025H22.2812V49.8712ZM28.5588 35.4562C28.0986 35.2213 27.6189 35.0268 27.125 34.875V22.0875C27.614 21.9858 28.0936 21.8432 28.5588 21.6612L52.5063 12.1287V44.9887L28.5588 35.4562ZM57.4663 23.715V33.4025C58.7509 33.4025 59.9829 32.8921 60.8913 31.9838C61.7997 31.0754 62.31 29.8433 62.31 28.5587C62.31 27.2741 61.7997 26.042 60.8913 25.1337C59.9829 24.2253 58.7509 23.715 57.4663 23.715Z" fill="url(#paint0_linear_773_165)"/>
</g>
<defs>
<linearGradient id="paint0_linear_773_165" x1="31.155" y1="7.3606" x2="31.155" y2="54.715" gradientUnits="userSpaceOnUse">
<stop stop-color="#F472B6"/>
<stop offset="1" stop-color="#EAB308"/>
</linearGradient>
<clipPath id="clip0_773_165">
<rect width="62" height="62" fill="white"/>
</clipPath>
</defs>
</svg>
