<svg width="62" height="62" viewBox="0 0 62 62" fill="none" xmlns="http://www.w3.org/2000/svg">
<path d="M13.4049 28.9772L19.734 31.6561C20.5349 30.0527 21.4072 28.501 22.351 27.0009C23.2947 25.5009 24.3367 24.0421 25.4768 22.6247L21.5114 21.8652C21.2461 21.7981 20.9895 21.8058 20.7415 21.8885C20.4935 21.9712 20.2696 22.1115 20.0699 22.3096L13.4049 28.9772ZM21.78 33.2939L29.0909 40.5944C31.1317 39.673 33.1854 38.5019 35.2521 37.0811C37.3188 35.6602 39.3062 33.9957 41.2145 32.0875C43.9958 29.3061 46.1211 26.3396 47.5901 23.1879C49.0592 20.0362 49.885 16.3972 50.0675 12.2707C45.9411 12.4533 42.3072 13.2791 39.1659 14.7482C36.028 16.2172 33.0675 18.3424 30.2844 21.1238C28.3779 23.0321 26.7142 25.0272 25.2934 27.1094C23.8725 29.1916 22.7014 31.2531 21.78 33.2939ZM35.1617 27.1585C34.4039 26.4007 34.025 25.4914 34.025 24.4305C34.025 23.3696 34.4039 22.4594 35.1617 21.6999C35.9195 20.9404 36.8409 20.5615 37.9259 20.5632C39.0109 20.565 39.9314 20.9439 40.6874 21.6999C41.4435 22.456 41.8224 23.3662 41.8241 24.4305C41.8258 25.4948 41.4469 26.4042 40.6874 27.1585C39.9297 27.9163 39.0083 28.2952 37.9233 28.2952C36.8383 28.2952 35.9186 27.9163 35.1643 27.1585M33.3585 48.9851L40.0261 42.3175C40.2242 42.1177 40.3654 41.8938 40.4498 41.6458C40.5324 41.3978 40.5411 41.1412 40.4756 40.876L39.7135 36.9106C38.2961 38.0507 36.8374 39.0901 35.3374 40.0287C33.8373 40.9673 32.2856 41.837 30.6822 42.6378L33.3585 48.9851ZM52.4804 9.8915C52.7697 14.6379 52.098 19.0038 50.4654 22.989C48.8344 26.9759 46.2941 30.6942 42.8445 34.1438L42.395 34.5907L41.9481 35.0377L42.9918 40.3387C43.1313 41.0344 43.1054 41.7087 42.9143 42.3614C42.7214 43.0141 42.3735 43.5919 41.8706 44.0948L32.4621 53.4542L28.1789 43.3663L18.9719 34.1593L8.88403 29.8271L18.228 20.4677C18.7308 19.9648 19.3112 19.6091 19.9691 19.4007C20.627 19.1924 21.3038 19.1579 21.9996 19.2974L27.3988 20.3876C27.5641 20.2222 27.7045 20.0733 27.8199 19.9407C27.9353 19.8081 28.0765 19.6591 28.2435 19.4937C31.6949 16.0424 35.4106 13.5073 39.3906 11.8884C43.3707 10.2695 47.7322 9.60389 52.4804 9.8915ZM13.2189 41.7647C14.2298 40.7554 15.4578 40.256 16.9027 40.2663C18.3476 40.2767 19.5756 40.7882 20.5865 41.8008C21.5975 42.8135 22.1004 44.0414 22.0952 45.4847C22.09 46.9313 21.582 48.1593 20.571 49.1685C19.6927 50.0468 18.2848 50.7986 16.3473 51.4237C14.4098 52.0489 12.1666 52.4812 9.6177 52.7206C9.85709 50.1717 10.298 47.9285 10.9404 45.991C11.5828 44.0535 12.3423 42.6447 13.2189 41.7647ZM15.0634 43.6427C14.5656 44.1405 14.1015 44.9516 13.6709 46.0762C13.2404 47.2009 12.9562 48.3608 12.8184 49.556C14.0137 49.4165 15.1736 49.1254 16.2982 48.6828C17.4211 48.2419 18.2314 47.7726 18.7291 47.2749C19.2458 46.7582 19.5093 46.1426 19.5196 45.4278C19.5282 44.7114 19.2742 44.0948 18.7575 43.5782C18.2409 43.0615 17.6252 42.8144 16.9104 42.8368C16.1957 42.8574 15.58 43.1261 15.0634 43.6427Z" fill="url(#paint0_linear_773_161)"/>
<defs>
<linearGradient id="paint0_linear_773_161" x1="30.7149" y1="9.82642" x2="30.7149" y2="53.4542" gradientUnits="userSpaceOnUse">
<stop stop-color="#F472B6"/>
<stop offset="1" stop-color="#EAB308"/>
</linearGradient>
</defs>
</svg>
